<svg width="24.000000" height="24.000000" viewBox="0 0 24 24" fill="none" xmlns="http://www.w3.org/2000/svg" xmlns:xlink="http://www.w3.org/1999/xlink">
    <path d="M17.67 21.65C16.61 22.08 14.4 22.59 12.66 22.59C5.71 22.59 1.92 18.71 1.92 11.83C1.92 5.17 5.84 1.19 12.42 1.19C18.8 1.19 22.07 5.79 22.07 10.46C22.07 13.77 21.73 17.66 18.11 17.66C16.92 17.66 15.08 17.15 14.88 15.67L14.77 15.67C14.36 16.66 13.34 17.62 11.4 17.55C8.43 17.45 6.9 14.96 6.9 11.72C6.9 8.66 8.84 6.54 11.4 6.27C13.1 6.09 14.43 6.75 14.67 7.5L14.77 7.5L14.77 6.54L16.58 6.54L16.58 14.25C16.58 15.2 17.13 16.05 18.15 16.05C19.89 16.05 20.3 14.32 20.3 10.42C20.3 6.61 17.74 2.79 12.32 2.79C6.97 2.79 3.8 6.2 3.8 11.9C3.8 17.69 6.9 20.96 12.73 20.96C14.6 20.96 16.58 20.28 17.19 20.08L17.67 21.65ZM8.67 11.62C8.67 13.8 9.46 15.82 11.67 15.82C13.96 15.82 14.88 14.45 14.88 11.62C14.88 8.75 13.79 7.94 11.74 7.94C9.8 7.94 8.67 9.65 8.67 11.62Z" fill="#54B3FF" fill-opacity="1.000000" fill-rule="evenodd"/>
</svg>