<svg width="24.000000" height="24.000000" viewBox="0 0 24 24" fill="none" xmlns="http://www.w3.org/2000/svg" xmlns:xlink="http://www.w3.org/1999/xlink">
	<path id="path" d="M9.37 4.35L10.59 6.56C10.75 6.84 10.76 7.19 10.61 7.49L9.43 9.85C9.43 9.85 9.77 11.6 11.2 13.03C12.63 14.46 14.38 14.79 14.38 14.79L16.74 13.62C17.03 13.47 17.38 13.48 17.67 13.64L19.88 14.87C20.2 15.04 20.4 15.38 20.4 15.74L20.4 18.28C20.4 19.57 19.2 20.5 17.97 20.09C15.46 19.24 11.56 17.62 9.08 15.15C6.61 12.68 4.99 8.78 4.14 6.26C3.73 5.04 4.66 3.84 5.96 3.84L8.49 3.84C8.86 3.84 9.19 4.03 9.37 4.35Z" stroke="#54B3FF" stroke-opacity="1.000000" stroke-width="1.500000" stroke-linejoin="round"></path>
</svg>